# Blender v2.81 (sub 16) OBJ File: 'triangle.blend'
# www.blender.org
mtllib triangle.mtl
o Plane
v 0.000000 0.000000 0.000000
v 0.000000 0.000000 1.000000
v 1.000000 0.000000 0.000000
v 0.879289 0.000000 0.050000
v 0.050000 0.000000 0.050000
v 0.050000 0.000000 0.879289
v 0.849112 0.050000 0.062500
v 0.879289 0.037500 0.050000
v 0.050000 0.037500 0.050000
v 0.062500 0.050000 0.062500
v 0.050000 0.037500 0.879289
v 0.062500 0.050000 0.849112
vt 0.879289 0.050000
vt 0.050000 0.050000
vt 0.050000 0.050000
vt 0.050000 0.879289
vt 0.000000 0.000000
vt 1.000000 0.000000
vt 0.000000 1.000000
vt 0.879289 0.050000
vt 0.062500 0.062500
vt 0.849112 0.062500
vt 0.062500 0.849112
vt 0.050000 0.879289
vn -1.0000 0.0000 0.0000
vn 0.0000 1.0000 0.0000
vn 0.7071 0.0000 0.7071
vn 0.0000 0.7071 -0.7071
vn -0.7071 0.7071 0.0000
vn 0.5000 0.7071 0.5000
vn 0.0000 0.0000 -1.0000
usemtl Material.001
s off
f 6/1/1 9/2/1 5/3/1
f 4/4/2 1/5/2 5/3/2
f 6/1/2 1/5/2 2/6/2
f 4/4/2 2/6/2 3/7/2
f 4/4/3 11/8/3 6/1/3
f 10/9/2 12/10/2 7/11/2
f 9/2/4 7/11/4 8/12/4
f 9/2/5 12/10/5 10/9/5
f 12/10/6 8/12/6 7/11/6
f 5/3/7 8/12/7 4/4/7
f 6/1/1 11/8/1 9/2/1
f 4/4/2 3/7/2 1/5/2
f 6/1/2 5/3/2 1/5/2
f 4/4/2 6/1/2 2/6/2
f 4/4/3 8/12/3 11/8/3
f 9/2/4 10/9/4 7/11/4
f 9/2/5 11/8/5 12/10/5
f 12/10/6 11/8/6 8/12/6
f 5/3/7 9/2/7 8/12/7
