# Blender v2.81 (sub 16) OBJ File: ''
# www.blender.org
mtllib mountains.mtl
o Plane
v 0.000000 0.000000 -0.600000
v 1.000000 0.000000 0.000000
v 0.000000 1.000000 0.000000
v 0.000000 0.909091 -0.060000
v 0.000000 0.818182 -0.120000
v 0.000000 0.727273 -0.180000
v 0.000000 0.636364 -0.240000
v 0.000000 0.545455 -0.300000
v 0.000000 0.454545 -0.360000
v 0.000000 0.363636 -0.420000
v 0.000000 0.272727 -0.480000
v 0.000000 0.181818 -0.540000
v 0.000000 0.090909 -0.600000
v 0.090909 0.000000 -0.600000
v 0.181818 0.000000 -0.540000
v 0.272727 0.000000 -0.480000
v 0.363636 0.000000 -0.420000
v 0.454545 0.000000 -0.360000
v 0.545455 0.000000 -0.300000
v 0.636364 0.000000 -0.240000
v 0.727273 0.000000 -0.180000
v 0.818182 0.000000 -0.120000
v 0.909091 0.000000 -0.060000
v 0.090909 0.909091 0.000000
v 0.181818 0.818182 0.000000
v 0.272727 0.727273 0.000000
v 0.363636 0.636364 0.000000
v 0.454545 0.545455 0.000000
v 0.545455 0.454545 0.000000
v 0.636364 0.363636 0.000000
v 0.727273 0.272727 0.000000
v 0.818182 0.181818 0.000000
v 0.909091 0.090909 0.000000
v 0.818182 0.090909 -0.060000
v 0.727273 0.090909 -0.120000
v 0.727273 0.181818 -0.060000
v 0.636364 0.090909 -0.180000
v 0.636364 0.181818 -0.120000
v 0.636364 0.272727 -0.060000
v 0.545455 0.090909 -0.240000
v 0.545455 0.181818 -0.180000
v 0.545455 0.272727 -0.120000
v 0.545455 0.363636 -0.060000
v 0.454545 0.090909 -0.300000
v 0.454545 0.181818 -0.240000
v 0.454545 0.272727 -0.180000
v 0.454545 0.363636 -0.120000
v 0.454545 0.454545 -0.060000
v 0.363636 0.090909 -0.360000
v 0.363636 0.181818 -0.300000
v 0.363636 0.272727 -0.240000
v 0.363636 0.363636 -0.180000
v 0.363636 0.454545 -0.120000
v 0.363636 0.545455 -0.060000
v 0.272727 0.090909 -0.420000
v 0.272727 0.181818 -0.360000
v 0.272727 0.272727 -0.300000
v 0.272727 0.363636 -0.240000
v 0.272727 0.454545 -0.180000
v 0.272727 0.545455 -0.120000
v 0.272727 0.636364 -0.060000
v 0.181818 0.090909 -0.480000
v 0.181818 0.181818 -0.420000
v 0.181818 0.272727 -0.360000
v 0.181818 0.363636 -0.300000
v 0.181818 0.454545 -0.240000
v 0.181818 0.545455 -0.180000
v 0.181818 0.636364 -0.120000
v 0.181818 0.727273 -0.060000
v 0.090909 0.090909 -0.540000
v 0.090909 0.181818 -0.480000
v 0.090909 0.272727 -0.420000
v 0.090909 0.363636 -0.360000
v 0.090909 0.454545 -0.300000
v 0.090909 0.545455 -0.240000
v 0.090909 0.636364 -0.180000
v 0.090909 0.727273 -0.120000
v 0.090909 0.818182 -0.060000
vt 0.000000 0.000000
vt 0.090909 0.000000
vt 0.000000 0.090909
vt 0.000000 0.909091
vt 0.090909 0.909091
vt 0.000000 1.000000
vt 0.000000 0.818182
vt 0.090909 0.818182
vt 0.000000 0.727273
vt 0.090909 0.727273
vt 0.000000 0.636364
vt 0.090909 0.636364
vt 0.000000 0.545455
vt 0.090909 0.545455
vt 0.000000 0.454545
vt 0.090909 0.454545
vt 0.000000 0.363636
vt 0.090909 0.363636
vt 0.000000 0.272727
vt 0.090909 0.272727
vt 0.000000 0.181818
vt 0.090909 0.181818
vt 0.090909 0.090909
vt 0.181818 0.818182
vt 0.181818 0.727273
vt 0.272727 0.727273
vt 0.181818 0.636364
vt 0.272727 0.636364
vt 0.363636 0.636364
vt 0.181818 0.545455
vt 0.272727 0.545455
vt 0.363636 0.545455
vt 0.454545 0.545455
vt 0.181818 0.454545
vt 0.272727 0.454545
vt 0.363636 0.454545
vt 0.454545 0.454545
vt 0.545455 0.454545
vt 0.181818 0.363636
vt 0.272727 0.363636
vt 0.363636 0.363636
vt 0.454545 0.363636
vt 0.545455 0.363636
vt 0.636364 0.363636
vt 0.181818 0.272727
vt 0.272727 0.272727
vt 0.363636 0.272727
vt 0.454545 0.272727
vt 0.545455 0.272727
vt 0.636364 0.272727
vt 0.727273 0.272727
vt 0.181818 0.181818
vt 0.272727 0.181818
vt 0.363636 0.181818
vt 0.454545 0.181818
vt 0.545455 0.181818
vt 0.636364 0.181818
vt 0.727273 0.181818
vt 0.818182 0.181818
vt 0.181818 0.090909
vt 0.272727 0.090909
vt 0.363636 0.090909
vt 0.454545 0.090909
vt 0.545455 0.090909
vt 0.636364 0.090909
vt 0.727273 0.090909
vt 0.818182 0.090909
vt 0.909091 0.090909
vt 0.181818 0.000000
vt 0.272727 0.000000
vt 0.363636 0.000000
vt 0.454545 0.000000
vt 0.545455 0.000000
vt 0.636364 0.000000
vt 0.727273 0.000000
vt 0.818182 0.000000
vt 0.909091 0.000000
vt 1.000000 0.000000
vn 0.0000 0.0000 -1.0000
vn 0.1585 0.1585 -0.9745
vn 0.2101 0.2101 -0.9548
usemtl Grass
s 1
f 1/1/1 13/2/2 14/3/2
f 23/4/3 33/5/3 2/6/3
f 22/7/3 34/8/3 23/4/3
f 21/9/3 35/10/3 22/7/3
f 20/11/3 37/12/3 21/9/3
f 19/13/3 40/14/3 20/11/3
f 18/15/3 44/16/3 19/13/3
f 17/17/3 49/18/3 18/15/3
f 16/19/3 55/20/3 17/17/3
f 15/21/3 62/22/3 16/19/3
f 14/3/2 70/23/3 15/21/3
f 23/4/3 34/8/3 33/5/3
f 34/8/3 32/24/3 33/5/3
f 22/7/3 35/10/3 34/8/3
f 35/10/3 36/25/3 34/8/3
f 34/8/3 36/25/3 32/24/3
f 36/25/3 31/26/3 32/24/3
f 21/9/3 37/12/3 35/10/3
f 37/12/3 38/27/3 35/10/3
f 35/10/3 38/27/3 36/25/3
f 38/27/3 39/28/3 36/25/3
f 36/25/3 39/28/3 31/26/3
f 39/28/3 30/29/3 31/26/3
f 20/11/3 40/14/3 37/12/3
f 40/14/3 41/30/3 37/12/3
f 37/12/3 41/30/3 38/27/3
f 41/30/3 42/31/3 38/27/3
f 38/27/3 42/31/3 39/28/3
f 42/31/3 43/32/3 39/28/3
f 39/28/3 43/32/3 30/29/3
f 43/32/3 29/33/3 30/29/3
f 19/13/3 44/16/3 40/14/3
f 44/16/3 45/34/3 40/14/3
f 40/14/3 45/34/3 41/30/3
f 45/34/3 46/35/3 41/30/3
f 41/30/3 46/35/3 42/31/3
f 46/35/3 47/36/3 42/31/3
f 42/31/3 47/36/3 43/32/3
f 47/36/3 48/37/3 43/32/3
f 43/32/3 48/37/3 29/33/3
f 48/37/3 28/38/3 29/33/3
f 18/15/3 49/18/3 44/16/3
f 49/18/3 50/39/3 44/16/3
f 44/16/3 50/39/3 45/34/3
f 50/39/3 51/40/3 45/34/3
f 45/34/3 51/40/3 46/35/3
f 51/40/3 52/41/3 46/35/3
f 46/35/3 52/41/3 47/36/3
f 52/41/3 53/42/3 47/36/3
f 47/36/3 53/42/3 48/37/3
f 53/42/3 54/43/3 48/37/3
f 48/37/3 54/43/3 28/38/3
f 54/43/3 27/44/3 28/38/3
f 17/17/3 55/20/3 49/18/3
f 55/20/3 56/45/3 49/18/3
f 49/18/3 56/45/3 50/39/3
f 56/45/3 57/46/3 50/39/3
f 50/39/3 57/46/3 51/40/3
f 57/46/3 58/47/3 51/40/3
f 51/40/3 58/47/3 52/41/3
f 58/47/3 59/48/3 52/41/3
f 52/41/3 59/48/3 53/42/3
f 59/48/3 60/49/3 53/42/3
f 53/42/3 60/49/3 54/43/3
f 60/49/3 61/50/3 54/43/3
f 54/43/3 61/50/3 27/44/3
f 61/50/3 26/51/3 27/44/3
f 16/19/3 62/22/3 55/20/3
f 62/22/3 63/52/3 55/20/3
f 55/20/3 63/52/3 56/45/3
f 63/52/3 64/53/3 56/45/3
f 56/45/3 64/53/3 57/46/3
f 64/53/3 65/54/3 57/46/3
f 57/46/3 65/54/3 58/47/3
f 65/54/3 66/55/3 58/47/3
f 58/47/3 66/55/3 59/48/3
f 66/55/3 67/56/3 59/48/3
f 59/48/3 67/56/3 60/49/3
f 67/56/3 68/57/3 60/49/3
f 60/49/3 68/57/3 61/50/3
f 68/57/3 69/58/3 61/50/3
f 61/50/3 69/58/3 26/51/3
f 69/58/3 25/59/3 26/51/3
f 15/21/3 70/23/3 62/22/3
f 70/23/3 71/60/3 62/22/3
f 62/22/3 71/60/3 63/52/3
f 71/60/3 72/61/3 63/52/3
f 63/52/3 72/61/3 64/53/3
f 72/61/3 73/62/3 64/53/3
f 64/53/3 73/62/3 65/54/3
f 73/62/3 74/63/3 65/54/3
f 65/54/3 74/63/3 66/55/3
f 74/63/3 75/64/3 66/55/3
f 66/55/3 75/64/3 67/56/3
f 75/64/3 76/65/3 67/56/3
f 67/56/3 76/65/3 68/57/3
f 76/65/3 77/66/3 68/57/3
f 68/57/3 77/66/3 69/58/3
f 77/66/3 78/67/3 69/58/3
f 69/58/3 78/67/3 25/59/3
f 78/67/3 24/68/3 25/59/3
f 14/3/2 13/2/2 70/23/3
f 13/2/2 12/69/3 70/23/3
f 70/23/3 12/69/3 71/60/3
f 12/69/3 11/70/3 71/60/3
f 71/60/3 11/70/3 72/61/3
f 11/70/3 10/71/3 72/61/3
f 72/61/3 10/71/3 73/62/3
f 10/71/3 9/72/3 73/62/3
f 73/62/3 9/72/3 74/63/3
f 9/72/3 8/73/3 74/63/3
f 74/63/3 8/73/3 75/64/3
f 8/73/3 7/74/3 75/64/3
f 75/64/3 7/74/3 76/65/3
f 7/74/3 6/75/3 76/65/3
f 76/65/3 6/75/3 77/66/3
f 6/75/3 5/76/3 77/66/3
f 77/66/3 5/76/3 78/67/3
f 5/76/3 4/77/3 78/67/3
f 78/67/3 4/77/3 24/68/3
f 4/77/3 3/78/3 24/68/3
